<svg width="0" height="0" class="hidden">
  <symbol xmlns="http://www.w3.org/2000/svg" viewBox="0 0 1280.000000 1280.000000" id="witch-icon">
    <g transform="translate(0.000000,1280.000000) scale(0.100000,-0.100000)" fill="currentColor" stroke="black" class="colored" stroke-width="10">
      <path d="M6505 10817 c-82 -27 -162 -92 -197 -160 -24 -47 -50 -169 -42 -192
11 -29 38 -11 51 34 26 91 88 138 209 161 190 37 313 -110 331 -395 7 -117 15
-103 -122 -187 -111 -67 -220 -117 -347 -158 -113 -36 -118 -45 -52 -91 149
-102 246 -129 464 -129 176 0 321 15 530 56 210 41 462 129 479 167 2 5 17 21
33 35 66 58 113 181 106 276 -4 48 -12 49 -168 28 -46 -7 -153 -12 -238 -12
-153 0 -153 0 -170 31 -160 291 -311 426 -587 524 -64 23 -225 30 -280 12z"></path>
      <path d="M7150 8713 c-8 -3 -28 -11 -45 -19 -16 -7 -61 -24 -100 -39 -38 -15
-96 -37 -128 -51 -32 -13 -63 -24 -69 -24 -23 0 -134 -63 -155 -88 -27 -33
-47 -92 -64 -192 -23 -141 -86 -219 -215 -267 -40 -15 -76 -35 -79 -43 -4 -8
-1 -108 6 -223 15 -265 7 -694 -15 -791 -32 -142 -70 -170 -226 -172 -365 -4
-461 -54 -717 -372 -315 -392 -389 -427 -988 -472 -134 -10 -266 -37 -287 -58
-18 -18 116 -158 302 -319 173 -149 351 -218 555 -217 197 1 394 84 641 269
27 20 24 -5 -7 -66 -56 -113 -127 -183 -275 -272 -167 -100 -270 -137 -385
-137 -53 0 -78 -4 -82 -13 -3 -8 -42 -18 -98 -26 -52 -7 -110 -17 -129 -22
-55 -14 -80 -12 -57 5 57 43 4 51 -250 36 -118 -6 -217 -10 -219 -7 -3 3 8 20
23 38 52 61 173 277 173 309 0 36 -35 22 -70 -27 -71 -99 -289 -308 -305 -292
-2 3 12 27 30 55 52 78 125 274 125 336 0 39 -36 19 -61 -34 -62 -135 -148
-239 -251 -306 -68 -44 -66 -34 -24 -121 39 -80 56 -171 54 -284 -1 -95 0 -97
102 -97 113 0 225 -31 359 -100 127 -64 141 -69 141 -44 0 56 -89 133 -241
209 -118 60 -154 84 -141 97 21 21 355 2 492 -26 69 -15 130 -24 137 -21 36
13 -3 54 -74 79 -55 19 -44 30 47 42 82 11 242 36 460 70 91 14 120 14 218 4
231 -25 436 18 623 131 48 29 104 51 176 70 135 36 143 45 67 84 -22 10 -41
20 -43 22 -2 1 17 33 41 70 24 37 52 80 61 95 18 29 42 18 371 -166 127 -71
222 -115 298 -135 59 -17 562 -9 623 9 257 75 466 78 657 10 121 -43 147 -7
60 85 -300 319 -324 434 -102 494 47 13 91 25 98 27 29 8 13 44 -20 44 -74 0
-413 321 -589 556 -53 71 -53 71 -128 77 -206 16 -252 76 -256 327 -2 136 -2
136 -51 205 -172 244 -287 438 -343 581 -32 81 -32 81 -4 153 36 92 83 155
158 208 75 53 68 54 89 -19 30 -100 182 -450 205 -468 3 -3 26 -45 51 -95 56
-112 61 -113 158 -38 102 79 262 194 279 200 8 3 25 25 39 50 38 64 31 123
-28 238 -170 333 -170 332 -134 340 14 3 37 7 51 10 42 9 30 34 -100 208 -109
146 -128 177 -148 245 -23 74 -25 77 -53 75 -95 -6 -123 -6 -159 0 -22 3 -47
4 -55 0z"></path>
      <path d="M10440 7262 c-14 -9 -79 -58 -145 -108 -235 -179 -641 -432 -953
-595 -122 -63 -123 -64 -117 -94 4 -16 9 -54 12 -82 3 -29 10 -53 16 -53 36 0
581 310 817 465 165 108 439 314 473 354 65 78 -19 170 -103 113z"></path>
      <path d="M8733 6273 c-7 -2 -13 -14 -13 -24 0 -31 64 -23 68 9 3 22 -21 29
-55 15z"></path>
      <path d="M2125 5474 c-292 -29 -390 -54 -603 -150 -216 -99 -540 -373 -482
-409 5 -3 23 1 39 9 89 47 291 101 429 115 196 21 313 7 154 -19 -181 -28
-399 -119 -634 -262 -108 -66 -121 -78 -108 -97 7 -12 24 -9 97 15 106 35 214
38 306 10 67 -20 71 -30 20 -47 -214 -70 -395 -202 -538 -390 -27 -35 -64 -81
-83 -103 -30 -34 -32 -40 -19 -53 12 -13 27 -6 120 55 180 119 317 157 520
145 93 -6 129 -17 90 -29 -144 -43 -501 -288 -763 -523 -150 -134 -155 -140
-139 -156 12 -13 33 -8 154 34 203 70 407 120 640 156 50 7 114 19 143 25 29
7 56 9 60 6 15 -15 -193 -205 -281 -258 -90 -53 -110 -74 -87 -88 10 -6 328
138 494 226 83 43 76 27 -55 -136 -115 -143 -256 -258 -436 -355 -55 -29 -73
-65 -34 -65 32 0 329 153 443 228 153 101 342 256 476 390 30 29 56 51 59 48
14 -14 -178 -300 -273 -407 -45 -51 -57 -89 -28 -89 18 0 208 148 364 284 71
62 364 361 453 464 45 50 85 92 89 92 9 0 -56 -189 -84 -245 -12 -22 -48 -80
-80 -128 -83 -124 -71 -152 27 -66 55 48 104 104 355 406 172 207 381 410 510
494 27 17 26 20 -16 169 -22 82 -41 193 -49 297 -7 91 -7 91 -116 142 -60 28
-133 61 -162 72 -28 11 -67 27 -85 35 -231 107 -651 182 -887 158z"></path>
    </g>
    <g transform="translate(0.000000,1280.000000) scale(0.100000,-0.100000)" fill="black" stroke="none">
      <path d="M7760 9906 c-158 -83 -382 -140 -738 -186 -110 -15 -372 -11 -446 7
-32 7 -60 12 -61 11 -1 -2 -15 -23 -29 -46 -49 -79 -72 -126 -90 -187 -37
-120 -50 -149 -84 -187 -36 -40 -114 -85 -187 -108 -162 -51 -220 -93 -269
-194 -44 -92 -86 -141 -133 -157 -43 -14 -192 -7 -238 12 -16 6 -90 14 -163
17 -155 5 -216 -7 -348 -69 -101 -48 -111 -48 -170 1 -140 116 -256 133 -484
69 -90 -24 -169 -21 -211 10 -51 38 -68 19 -24 -25 51 -51 119 -72 273 -82
177 -13 207 -25 294 -125 75 -87 86 -98 118 -120 24 -17 24 -17 -13 -17 -49 0
-84 -16 -181 -78 -131 -86 -167 -89 -304 -20 -87 43 -157 57 -227 44 -42 -8
-47 -33 -7 -42 57 -15 110 -44 197 -109 148 -111 201 -124 338 -83 105 31 174
34 215 9 53 -34 49 -39 -112 -129 -163 -92 -330 -133 -459 -113 -125 19 -120
-2 10 -45 103 -34 237 -39 311 -12 36 14 41 14 31 1 -22 -25 -81 -49 -194 -78
-174 -43 -196 -59 -262 -185 -21 -41 -45 -85 -53 -97 -8 -12 -11 -25 -7 -29
11 -11 55 35 88 93 52 91 124 137 241 153 177 25 280 72 308 140 15 35 36 38
120 15 30 -8 99 -18 153 -21 53 -4 97 -10 97 -14 0 -23 -36 -87 -71 -124 -53
-58 -99 -71 -232 -62 -157 10 -193 -5 -332 -139 -79 -76 -133 -110 -188 -120
-43 -8 -45 -28 -2 -33 33 -4 133 24 156 44 8 8 18 14 22 14 3 0 25 13 49 29
101 68 207 82 348 47 110 -27 227 -22 281 13 44 28 57 42 151 161 76 95 137
117 318 111 65 -2 65 -2 15 -28 -90 -46 -131 -87 -170 -171 -90 -191 -86 -185
-145 -214 -42 -20 -75 -28 -155 -33 -178 -12 -213 -38 -390 -281 -12 -17 2
-31 19 -19 7 6 49 39 94 75 108 87 145 99 342 103 226 6 316 52 391 204 43 85
42 85 116 77 163 -16 299 46 368 171 39 70 62 93 120 122 84 43 133 77 139 98
4 14 28 28 80 48 129 48 191 125 215 267 17 100 37 159 64 192 21 25 132 88
155 88 6 0 37 11 69 24 32 14 90 36 128 51 39 15 86 34 105 43 20 9 53 15 75
13 63 -5 117 -5 157 0 35 4 37 6 43 49 22 161 83 229 194 216 204 -24 231 -17
231 64 0 28 6 46 20 57 12 11 20 30 20 50 0 17 5 35 10 38 6 3 10 26 10 49 0
38 5 47 35 70 45 34 44 35 -14 100 -74 81 -90 169 -50 261 33 75 25 160 -23
242 -11 18 -21 33 -22 33 0 0 -21 -11 -46 -24z m-2610 -1376 c0 -21 -48 -59
-88 -70 -35 -9 -51 -7 -104 11 -93 31 -93 39 -2 40 43 0 99 6 124 13 59 17 70
18 70 6z"></path>
      <path d="M7670 8200 c-8 -5 -25 -10 -38 -10 -60 0 -64 -13 -28 -98 18 -42 47
-102 64 -132 121 -213 140 -282 97 -355 -15 -26 -25 -48 -23 -49 11 -10 188
-163 213 -184 87 -76 310 -240 432 -317 236 -149 418 -300 515 -425 46 -60 51
-75 33 -116 -14 -33 -131 -202 -149 -215 -5 -4 -9 -17 -10 -30 -1 -17 -8 -25
-25 -27 -18 -3 -22 0 -18 12 3 8 2 18 -4 22 -5 3 -21 24 -35 46 -130 205 -356
287 -662 239 -255 -40 -219 -49 -299 71 -134 200 -353 601 -353 647 0 10 -7
21 -15 25 -8 3 -34 45 -57 93 -24 48 -46 90 -49 93 -22 18 -174 365 -204 465
-24 81 -22 81 -97 30 -97 -65 -152 -142 -189 -263 -14 -48 16 -137 99 -292 40
-76 255 -407 303 -469 11 -13 19 -32 19 -41 0 -10 7 -23 15 -30 42 -35 295
-377 295 -399 0 -5 4 -11 9 -13 5 -1 32 -34 61 -73 79 -105 126 -158 226 -259
209 -208 315 -296 356 -296 35 0 101 -60 139 -126 16 -29 39 -56 49 -59 11 -4
20 -10 20 -15 0 -5 -31 6 -69 25 -38 19 -106 46 -152 60 -46 14 -97 30 -113
35 -25 8 -33 5 -62 -24 -81 -81 -21 -207 218 -461 77 -81 64 -101 -40 -65
-195 69 -364 67 -677 -9 -22 -5 -68 -12 -102 -16 -76 -8 -83 -25 -10 -25 85 0
371 -52 391 -71 5 -5 -77 -96 -195 -216 -544 -553 -602 -639 -1017 -1503 -63
-131 -88 -150 -197 -150 -118 0 -129 -26 -95 -237 15 -97 4 -191 -33 -275 -13
-29 -32 -86 -42 -126 -49 -188 74 -302 332 -306 102 -1 106 12 24 92 -133 130
-141 204 -42 349 22 33 41 63 41 67 0 22 86 216 116 261 51 78 246 291 388
424 66 63 242 238 390 390 293 300 567 572 728 721 198 183 299 312 355 453
23 59 43 86 43 57 0 -50 318 -519 420 -620 51 -50 166 -220 221 -326 57 -109
61 -148 24 -209 -54 -88 -29 -133 126 -223 91 -54 132 -93 193 -184 76 -115
154 -163 266 -163 135 0 274 103 163 120 -56 8 -139 53 -175 94 -28 32 -75
122 -154 300 -16 36 -41 88 -56 115 -15 28 -70 137 -122 241 -97 193 -112 234
-256 685 -105 332 -308 944 -340 1030 -16 41 -29 81 -29 88 -2 22 17 12 23
-13 11 -43 48 -33 92 26 39 50 39 50 42 9 3 -42 3 -42 39 -37 57 10 180 157
208 247 4 14 12 31 18 38 23 29 1 157 -35 198 -10 11 -18 24 -18 28 0 18 -148
223 -233 322 -51 60 -199 210 -327 334 -589 566 -674 656 -863 908 -43 56 -79
102 -80 102 -1 0 -9 -5 -17 -10z"></path>
      <path d="M6173 5503 c-9 -16 -36 -58 -60 -94 -42 -65 -53 -99 -33 -99 6 0 29
-12 52 -26 94 -59 695 -139 722 -95 4 6 0 14 -11 17 -67 21 -166 68 -283 133
-184 102 -352 191 -362 191 -4 0 -15 -12 -25 -27z"></path>
    </g>
    <g transform="translate(0.000000,1280.000000) scale(0.100000,-0.100000)" fill="brown" stroke="none">
      <path d="M3495 5204 c-96 -52 -117 -53 -196 -13 -65 32 -117 54 -108 44 4 -3
42 -23 86 -44 80 -39 80 -39 87 -127 11 -140 27 -225 67 -363 11 -35 19 -67
19 -71 0 -5 -31 -33 -70 -62 -38 -29 -69 -57 -70 -62 0 -6 12 2 28 16 106 98
131 108 276 108 144 0 146 1 146 56 0 24 2 24 93 26 92 1 92 1 10 7 -45 3 -84
9 -87 12 -4 3 -7 54 -8 114 -2 123 -10 164 -54 255 -31 64 -31 64 12 98 59 44
56 48 -6 10 -51 -32 -51 -32 -81 5 -37 45 -44 45 -144 -9z"></path>
    </g>
  </symbol>
  <symbol xmlns="http://www.w3.org/2000/svg" viewBox="0 0 48 25" id="car-icon">
    <path class="carOnTrackIcon" fill="currentColor" d="M47.032 18.395V6.63598C47.032 3.51898 43.565 0.992981 40.448 0.992981L5.64398 0.992981C2.52798 0.992981 -1.90735e-05 3.51898 -1.90735e-05 6.63598V18.395C-1.90735e-05 21.511 2.52698 24.039 5.64398 24.039L40.448 24.039C43.565 24.037 47.032 21.511 47.032 18.395ZM32.844 23.05H21.179L20.828 20.321H25.634L32.844 23.05ZM36.259 21.618C32.359 20.602 27.749 19.399 27.749 19.399L27.749 5.63098L36.259 3.40898C36.259 3.40998 39.277 12.293 36.259 21.618ZM25.319 4.74098L20.827 4.74098L21.176 2.01098L32.53 2.01098L25.319 4.74098ZM9.09398 2.01098L19.453 2.01098L19.11 4.74098L10.914 4.74098L9.09398 2.01098ZM6.14998 3.56798L9.48598 5.78598V19.557L6.14998 21.776L6.14998 3.56798ZM11.227 20.321L19.099 20.321L19.454 23.05L9.40598 23.05L11.227 20.321Z" />
  </symbol>
</svg>